<?xml version="1.0" standalone="no"?>
<!DOCTYPE svg PUBLIC "-//W3C//DTD SVG 20010904//EN"
 "http://www.w3.org/TR/2001/REC-SVG-20010904/DTD/svg10.dtd">
<svg version="1.0" xmlns="http://www.w3.org/2000/svg"
 width="500.000000pt" height="500.000000pt" viewBox="0 0 500.000000 500.000000"
 preserveAspectRatio="xMidYMid meet">
<metadata>
Created by potrace 1.16, written by Peter Selinger 2001-2019
</metadata>
<g transform="translate(0.000000,500.000000) scale(0.100000,-0.100000)"
fill="#000000" stroke="none">
<path d="M2174 4225 c-3 -8 -10 -13 -14 -10 -4 2 -7 -5 -6 -18 1 -16 14 -28
46 -43 51 -24 75 -48 65 -64 -3 -5 0 -10 7 -10 9 0 9 -3 -2 -10 -10 -6 -11
-10 -2 -10 6 0 12 -4 12 -10 0 -5 -6 -10 -13 -10 -7 0 -17 -8 -24 -19 -7 -12
-29 -20 -65 -25 -29 -4 -62 -9 -73 -11 -24 -3 -87 -63 -112 -106 -9 -15 -19
-26 -23 -24 -3 2 -5 -29 -5 -68 2 -58 8 -83 30 -127 16 -30 28 -58 27 -63 -1
-4 1 -6 5 -5 5 2 9 -1 10 -6 1 -5 12 -14 25 -21 13 -6 22 -17 20 -24 -1 -7 2
-10 7 -7 5 4 26 -5 46 -18 20 -14 57 -33 83 -42 26 -10 49 -20 52 -23 3 -4 12
-7 20 -8 8 -1 69 -15 135 -32 66 -17 148 -36 182 -42 35 -6 60 -15 57 -20 -3
-5 2 -6 10 -3 23 9 288 -55 280 -68 -3 -4 2 -5 11 -2 18 7 135 -34 135 -48 0
-5 4 -6 10 -3 5 3 27 -4 50 -15 39 -20 40 -20 40 -1 0 23 -20 72 -71 174 -22
43 -36 84 -33 90 4 7 4 9 -1 5 -8 -7 -45 33 -45 49 0 11 -40 46 -40 35 0 -4
-6 0 -13 8 -7 8 -30 25 -52 36 -33 18 -65 23 -175 28 -74 4 -137 11 -138 17
-2 5 -20 7 -40 4 -26 -4 -31 -3 -17 3 15 7 9 9 -25 8 -48 0 -160 44 -182 73
-12 15 -11 15 7 1 19 -14 19 -14 6 2 -7 10 -16 16 -20 14 -13 -8 -43 23 -35
36 5 9 2 8 -11 -2 -17 -14 -18 -14 -6 8 11 22 17 23 69 16 31 -4 58 -10 60
-13 3 -8 101 3 140 15 12 3 22 11 22 16 0 5 4 7 8 4 5 -3 9 0 10 7 1 7 4 36 8
65 5 39 2 64 -12 100 -10 26 -17 50 -16 55 1 4 -2 7 -6 7 -5 0 -17 7 -28 16
-10 8 -12 12 -4 8 8 -4 13 -5 10 -1 -3 3 -9 6 -15 7 -14 3 -67 41 -83 60 -11
13 -12 13 -6 0 6 -12 5 -13 -7 -3 -8 6 -37 20 -64 31 -28 10 -59 22 -70 27
-11 4 -39 7 -62 6 -23 -2 -51 3 -62 9 -17 9 -22 8 -27 -5z"/>
<path d="M1865 3881 c-11 -5 -23 -7 -27 -4 -5 2 -8 0 -8 -6 0 -14 -58 -70 -65
-62 -4 3 -6 2 -4 -4 1 -5 -3 -23 -10 -40 -8 -20 -10 -47 -6 -80 4 -27 8 -60 9
-72 0 -11 5 -19 10 -15 5 3 6 -2 3 -12 -4 -10 -3 -15 3 -11 9 6 12 0 14 -35 1
-8 6 -15 11 -15 20 0 95 -67 88 -78 -3 -7 -2 -9 2 -4 11 9 55 -31 55 -50 0 -8
5 -11 12 -7 8 5 9 2 5 -10 -4 -9 -3 -15 2 -12 13 9 65 -106 65 -146 1 -20 5
-34 9 -31 5 3 7 -40 5 -96 -2 -75 0 -102 10 -106 9 -3 1 -20 -25 -55 -26 -35
-40 -46 -46 -37 -6 8 -7 4 -4 -11 4 -15 0 -25 -9 -29 -8 -3 -14 -11 -14 -19 0
-7 -6 -17 -13 -21 -8 -4 -17 -16 -20 -26 -4 -11 -12 -15 -18 -11 -7 4 -9 3 -6
-3 8 -12 -50 -123 -64 -123 -5 0 -8 -3 -8 -7 4 -22 -3 -41 -21 -61 -11 -12
-20 -25 -20 -29 1 -5 -4 -27 -11 -50 -6 -24 -9 -65 -7 -93 3 -31 1 -47 -5 -43
-5 3 -7 0 -5 -8 3 -8 10 -13 15 -12 6 1 16 -16 22 -39 15 -48 95 -180 105
-171 3 3 6 1 6 -6 0 -15 25 -41 39 -41 5 0 13 -5 17 -12 5 -7 3 -8 -6 -3 -8 5
43 -48 113 -117 70 -69 127 -132 127 -142 0 -9 5 -16 11 -16 5 0 7 -6 3 -12
-4 -7 -4 -10 1 -6 4 4 13 4 19 -1 6 -4 19 -11 29 -14 16 -6 17 -2 13 34 -3 23
-12 52 -21 65 -9 14 -13 30 -9 36 4 6 3 8 -3 5 -5 -3 -27 15 -48 40 -22 26
-33 43 -25 39 8 -4 3 2 -12 14 -16 12 -28 27 -28 34 0 7 -10 21 -22 32 -14 13
-19 14 -14 4 4 -8 -9 2 -28 24 -20 21 -33 43 -30 47 3 5 0 9 -6 9 -12 0 -44
69 -36 77 5 6 30 -46 28 -57 0 -3 9 -6 21 -7 12 0 16 1 10 4 -7 3 -13 9 -13
15 0 6 6 5 15 -2 8 -7 14 -20 13 -29 -2 -11 3 -15 16 -13 13 3 17 -1 13 -12
-4 -9 -3 -15 1 -15 20 3 25 -2 12 -12 -13 -9 -12 -10 3 -5 20 6 107 -51 107
-71 0 -7 5 -13 11 -13 5 0 7 4 4 10 -6 9 46 -10 99 -37 23 -12 26 -17 15 -25
-10 -7 -8 -7 9 -3 15 4 36 -2 65 -19 54 -33 109 -81 83 -72 -16 6 -17 4 -6 -9
9 -11 16 -12 25 -5 8 7 15 7 19 1 3 -5 0 -12 -6 -15 -7 -3 -2 -3 11 0 20 5 39
-11 132 -107 60 -63 109 -122 109 -131 0 -10 5 -17 11 -16 6 2 16 -6 22 -17 7
-11 18 -25 26 -31 8 -6 11 -16 6 -24 -5 -9 -4 -11 3 -6 13 8 75 -81 66 -95 -3
-5 0 -9 6 -9 6 0 8 -5 4 -12 -4 -6 -3 -8 4 -4 6 3 19 -4 29 -16 31 -38 48 -33
23 6 -12 20 -19 40 -15 46 3 5 2 10 -4 10 -15 0 -31 93 -31 181 0 51 -5 90
-15 109 -9 18 -11 31 -5 35 15 9 30 -4 30 -26 0 -11 4 -18 9 -14 10 6 37 -34
33 -48 -1 -5 2 -6 7 -3 10 7 26 -23 30 -55 0 -5 5 -8 10 -5 12 8 54 -60 47
-73 -4 -5 -1 -13 5 -17 8 -4 9 -3 5 4 -4 7 -4 12 1 11 9 0 116 -144 121 -162
2 -7 -2 -5 -8 3 -10 13 -11 13 -7 0 2 -8 8 -15 13 -15 21 -1 34 -18 29 -38 -4
-15 -3 -18 3 -9 7 10 11 10 22 -3 11 -13 -81 -15 -932 -15 -721 0 -947 -3
-956 -12 -9 -9 -12 -9 -12 2 0 7 -3 11 -6 8 -3 -4 0 -17 7 -30 7 -12 13 -25
12 -28 -2 -7 2306 -2 2335 5 14 4 22 13 22 28 0 18 2 19 11 7 9 -13 10 -13 6
0 -3 12 -31 16 -144 20 l-141 5 -46 63 c-25 34 -43 62 -39 62 4 0 0 6 -9 13
-8 6 -47 55 -85 107 -182 248 -231 318 -226 324 4 3 2 6 -4 6 -6 0 -27 22 -46
48 -31 44 -32 48 -14 47 11 -1 25 -11 30 -23 13 -29 37 -28 37 1 0 35 37 137
65 179 14 21 25 40 25 43 0 3 11 16 24 28 37 34 39 56 6 112 -74 126 -92 173
-97 255 -4 59 -3 80 6 80 7 0 10 4 7 9 -6 9 35 101 80 180 l25 44 -36 54 c-19
29 -33 53 -30 53 12 0 -95 89 -114 95 -12 3 -21 10 -21 15 0 5 -10 14 -22 20
-22 11 -22 10 -4 -4 11 -9 17 -16 14 -16 -13 0 -137 61 -143 70 -4 6 -16 8
-27 4 -11 -3 -18 -2 -15 2 3 5 -12 10 -32 10 -52 2 -152 24 -147 32 2 4 -21 8
-53 10 -31 1 -57 6 -59 11 -1 4 -14 6 -29 3 -18 -3 -24 -1 -19 6 4 8 2 10 -8
6 -8 -3 -30 -1 -49 5 -19 7 -58 16 -88 20 -71 12 -157 53 -208 100 -23 21 -43
36 -45 34 -10 -11 -159 185 -155 204 1 4 -3 21 -10 37 -6 16 -9 31 -7 34 3 2
-2 11 -10 19 -16 17 -17 113 -1 113 6 0 8 3 4 6 -3 4 0 19 8 34 19 37 10 47
-30 31z m266 -922 c-6 -17 -8 -35 -6 -39 3 -5 30 -14 60 -21 63 -14 156 -2
246 32 69 27 158 24 227 -6 28 -13 52 -29 52 -36 0 -7 3 -10 6 -6 8 7 39 -22
39 -37 1 -6 6 -10 12 -9 17 4 75 -66 67 -80 -4 -7 -4 -9 1 -5 10 9 46 -47 48
-73 1 -11 4 -19 8 -19 11 0 36 -95 44 -162 8 -66 -11 -202 -27 -191 -7 3 -8 1
-4 -6 4 -6 -2 -36 -15 -65 l-22 -54 23 -36 c12 -20 19 -43 16 -51 -3 -10 0
-12 11 -8 11 4 14 2 9 -5 -4 -7 -3 -12 2 -12 12 0 45 -50 45 -67 0 -7 4 -10 8
-7 4 2 10 0 14 -6 3 -5 -3 -10 -13 -10 -11 0 -32 16 -46 35 -15 19 -25 35 -22
35 3 0 -8 14 -24 32 -16 17 -28 34 -26 36 2 2 -6 14 -18 27 -12 13 -47 59 -76
102 -29 43 -66 96 -82 118 -16 22 -58 87 -93 145 -77 127 -122 190 -136 190
-6 0 -24 -9 -40 -21 l-29 -20 0 31 c0 17 -6 46 -14 65 -8 18 -13 35 -11 37 2
2 -13 4 -32 6 -23 1 -43 -4 -55 -15 -15 -14 -21 -14 -31 -3 -10 10 -9 11 2 5
9 -5 12 -4 7 3 -5 9 -13 9 -27 2 -15 -9 -19 -20 -17 -49 2 -21 8 -37 13 -36 6
2 25 6 43 9 l32 6 0 -55 c0 -67 20 -85 97 -85 28 0 64 -5 79 -10 25 -10 26
-13 21 -60 -3 -28 -11 -58 -17 -68 -10 -14 -10 -13 -6 8 4 14 9 44 12 66 l6
41 -57 8 c-70 8 -87 -3 -64 -43 8 -15 22 -38 30 -52 8 -14 22 -31 32 -38 9 -7
17 -19 17 -27 0 -7 4 -15 8 -17 11 -4 122 -151 118 -155 -2 -2 12 -20 30 -40
19 -20 32 -39 29 -41 -3 -3 3 -11 13 -19 9 -8 11 -11 4 -8 -11 6 -12 3 -2 -14
6 -12 15 -19 20 -16 12 7 29 -26 27 -52 l-1 -21 -43 21 c-23 11 -39 25 -36 30
3 6 1 7 -5 3 -6 -3 -29 1 -52 10 -31 13 -38 19 -28 26 10 7 8 8 -5 4 -22 -7
-110 27 -100 39 4 4 2 5 -5 1 -17 -10 -54 3 -46 16 4 7 2 8 -5 4 -16 -10 -95
38 -155 93 -40 37 -117 139 -122 161 -1 6 -13 39 -24 65 -21 50 -32 127 -31
213 1 125 15 172 82 280 18 29 24 10 10 -29z"/>
<path d="M1783 3386 c-4 -5 0 -6 7 -1 9 6 10 2 4 -16 -14 -39 -8 -80 17 -126
13 -24 27 -43 31 -43 4 0 17 -19 29 -41 23 -46 40 -157 21 -146 -6 5 -8 -1 -4
-15 3 -11 1 -19 -4 -16 -5 4 -10 -7 -11 -23 -2 -22 2 -29 17 -29 50 0 92 131
71 223 -6 29 -20 67 -32 85 -11 19 -15 31 -9 27 6 -3 7 0 4 10 -4 9 -9 14 -11
11 -11 -11 -87 89 -79 102 2 4 -7 7 -21 7 -14 0 -27 -4 -30 -9z"/>
<path d="M2276 1941 c-3 -4 4 -17 15 -27 11 -10 17 -24 14 -31 -2 -8 -1 -11 5
-8 5 3 17 -7 27 -22 10 -15 21 -30 24 -33 4 -3 15 -31 24 -63 18 -64 14 -115
-12 -156 -14 -21 -20 -23 -68 -18 -68 7 -91 -12 -50 -39 34 -22 165 -23 218 0
69 28 94 106 63 194 -8 22 -11 43 -8 47 4 4 2 5 -4 3 -5 -2 -24 13 -42 33 -25
29 -29 38 -19 49 10 12 9 12 -3 3 -12 -9 -27 -3 -74 33 -56 41 -98 55 -110 35z"/>
<path d="M2998 1208 c11 -13 9 -17 -10 -22 -41 -11 -59 -33 -63 -75 -2 -24 0
-39 6 -36 5 4 9 2 9 -4 0 -6 10 -19 22 -31 17 -16 19 -23 10 -32 -9 -9 -12 -8
-12 5 0 9 -7 17 -15 17 -12 0 -15 -13 -15 -58 l0 -59 83 2 c116 2 120 4 124
54 5 52 -12 75 -75 102 -35 15 -43 23 -40 41 2 13 11 24 21 26 22 4 59 -26 50
-41 -3 -6 -1 -7 6 -3 6 4 14 0 17 -8 12 -30 24 -4 24 51 0 49 -2 55 -19 50
-20 -5 -96 12 -121 27 -13 8 -13 7 -2 -6z"/>
<path d="M3369 1210 c-4 -11 -27 -15 -110 -15 -99 -1 -104 -2 -105 -22 -1 -13
4 -19 11 -17 28 11 27 -194 -1 -217 -8 -6 -14 -15 -14 -20 0 -5 86 -9 190 -9
105 0 190 4 190 9 0 5 -7 14 -15 21 -9 7 -15 29 -15 51 0 38 0 38 20 22 11
-10 20 -26 20 -36 0 -10 4 -16 9 -12 12 7 33 -29 23 -40 -4 -5 -2 -5 5 -1 6 3
16 -1 21 -10 5 -9 15 -15 23 -12 11 4 13 32 11 134 -2 81 1 124 7 115 9 -14
31 -7 31 10 0 6 -6 7 -12 3 -10 -6 -10 -4 0 8 17 21 -2 28 -73 28 -59 0 -75
-12 -51 -39 9 -10 16 -28 16 -41 0 -23 -1 -23 -14 -5 -8 11 -11 26 -8 34 3 9
1 12 -6 7 -7 -4 -15 -1 -18 8 -8 20 -69 40 -99 32 -17 -4 -24 -1 -27 11 -3 14
-5 15 -9 3z"/>
<path d="M1133 1193 c3 -4 -64 -6 -149 -5 l-154 4 -1 -51 c-1 -28 -2 -67 -3
-88 -2 -59 21 -51 50 16 15 34 30 61 35 61 5 0 4 -11 -1 -25 -7 -19 -6 -23 5
-18 22 8 17 -226 -5 -244 -13 -11 -13 -12 0 -13 10 0 7 -7 -10 -20 -37 -28
-17 -38 82 -42 70 -2 89 0 93 12 4 8 -4 22 -19 33 -26 19 -26 19 -26 168 0
107 3 149 12 149 6 0 8 -3 5 -6 -3 -4 5 -15 18 -26 14 -11 25 -27 24 -36 0
-12 -3 -11 -9 6 -12 30 -22 28 -10 -2 5 -13 6 -27 2 -31 -3 -3 1 -3 11 1 12 4
17 1 17 -10 0 -9 7 -16 15 -16 12 0 15 16 16 83 0 45 3 76 6 69 2 -6 9 -10 13
-7 5 3 12 0 16 -6 4 -8 3 -9 -4 -5 -7 4 -12 3 -12 -3 0 -5 4 -12 9 -15 15 -9
13 -156 -2 -156 -8 0 -7 -3 3 -10 12 -8 12 -10 -3 -16 -9 -3 -17 -12 -17 -20
0 -11 17 -14 70 -14 78 0 86 1 82 13 -1 5 2 6 8 2 6 -3 8 -9 6 -13 -4 -8 216
-3 224 4 2 3 -2 14 -9 25 -20 33 -16 197 5 220 13 14 20 16 31 8 7 -6 13 -17
12 -23 0 -7 -2 -6 -6 2 -2 6 -9 12 -14 12 -4 0 -6 -7 -3 -15 4 -8 12 -15 20
-15 18 0 19 -75 1 -110 -10 -18 -10 -30 -3 -43 8 -14 7 -21 -4 -30 -8 -7 -15
-19 -16 -27 -1 -13 14 -14 101 -10 106 5 153 23 156 58 5 49 2 58 -21 74 -19
14 -21 18 -8 18 9 0 20 5 24 12 4 6 3 8 -4 4 -7 -4 -9 4 -5 27 3 23 -1 39 -14
56 -17 21 -32 25 -104 31 -46 3 -128 4 -182 2 -92 -4 -98 -6 -95 -25 2 -11 10
-23 18 -25 13 -5 13 -3 0 14 -14 17 -14 18 2 6 13 -11 16 -31 15 -114 -2 -77
-5 -102 -16 -106 -8 -3 -11 0 -7 7 4 6 2 9 -7 6 -18 -8 -51 30 -43 50 3 9 2
13 -3 10 -5 -3 -13 -1 -16 5 -4 6 7 23 24 39 18 17 32 24 35 17 3 -6 2 5 -1
24 -8 50 -20 70 -51 81 -32 12 -216 23 -209 12z"/>
<path d="M2092 1191 c-11 -6 -10 -11 3 -24 8 -9 16 -19 15 -22 0 -3 0 -6 1 -7
7 -32 7 -102 -1 -122 -6 -18 -6 -25 0 -21 19 12 10 -32 -11 -51 -21 -19 -21
-18 -40 5 -17 21 -24 42 -20 64 0 4 -3 7 -7 7 -7 0 -12 21 -16 67 0 12 -3 19
-6 16 -3 -2 -10 15 -15 39 l-11 43 -53 3 c-53 3 -53 3 -47 -23 8 -33 -38 -192
-64 -220 -11 -12 -20 -24 -20 -27 0 -4 26 -8 59 -10 58 -3 59 -3 50 21 -13 33
-2 61 24 60 21 0 21 -1 2 -9 -19 -8 -19 -9 3 -9 25 -1 30 -26 6 -35 -8 -3 -12
-10 -9 -16 4 -6 78 -10 191 -10 l184 0 0 80 c0 44 -4 80 -9 80 -5 0 -24 -25
-41 -55 -17 -30 -35 -55 -40 -55 -11 0 -18 149 -8 178 5 14 13 20 20 16 6 -4
8 -3 4 4 -3 6 -2 13 4 17 6 4 8 11 5 16 -8 11 -135 12 -153 0z"/>
<path d="M2435 1189 c-3 -3 4 -14 14 -23 16 -14 19 -33 19 -117 0 -88 -2 -100
-19 -109 -41 -23 -16 -30 99 -30 65 0 121 2 123 4 2 2 2 32 1 65 -3 43 -8 61
-17 61 -8 0 -17 -10 -21 -22 -9 -33 -34 -58 -56 -58 -14 0 -18 7 -17 38 0 21
3 31 7 22 4 -8 17 -16 28 -18 19 -2 22 3 26 38 5 52 -3 66 -29 51 -24 -12 -33
-6 -33 24 0 17 6 23 25 23 24 0 34 -12 18 -21 -5 -2 -2 -2 4 -1 7 2 19 -9 27
-25 27 -51 42 -35 36 38 l-5 66 -113 0 c-62 1 -115 -2 -117 -6z"/>
<path d="M2751 1189 c-43 -13 -60 -35 -61 -75 0 -36 27 -65 83 -88 41 -17 58
-43 36 -57 -8 -5 -17 -9 -21 -9 -13 0 -77 63 -72 71 3 5 -2 6 -11 3 -12 -5
-15 -19 -13 -63 l3 -56 64 -3 c108 -6 141 13 141 76 -1 33 -16 69 -30 69 -24
-1 -79 28 -83 42 -12 49 28 50 76 2 40 -37 56 -28 52 30 -3 48 -10 58 -43 58
-15 0 -40 2 -57 5 -16 3 -46 0 -64 -5z"/>
<path d="M3697 1158 c-29 -27 -48 -54 -49 -69 -2 -44 4 -83 18 -110 7 -15 10
-30 6 -34 -4 -3 -2 -5 3 -4 6 2 22 -5 37 -15 19 -12 41 -17 68 -14 23 2 40 -1
40 -7 0 -5 4 -4 8 3 5 7 16 10 25 6 15 -5 17 2 17 55 0 34 -3 61 -6 61 -3 0
-19 -14 -36 -31 -19 -18 -39 -29 -52 -27 -19 3 -21 10 -24 81 -2 53 1 77 8 72
5 -3 10 -1 10 4 0 6 6 11 14 11 14 0 23 -7 54 -45 20 -23 32 -18 32 15 0 22 4
28 15 24 11 -5 13 -2 9 10 -3 9 -10 13 -15 10 -5 -3 -9 4 -9 15 0 15 -6 21
-22 20 -13 0 -41 3 -63 6 -37 7 -43 4 -88 -37z"/>
<path d="M3880 1183 c0 -4 10 -17 22 -30 20 -22 22 -32 20 -174 -1 -140 -3
-153 -22 -166 -11 -8 -20 -21 -20 -29 0 -11 24 -14 134 -14 74 0 140 2 148 5
9 4 12 23 11 68 -1 34 -2 80 -2 101 -1 38 -2 39 -20 22 -11 -10 -23 -32 -27
-50 -8 -38 -41 -76 -66 -76 -17 0 -19 7 -17 55 2 44 5 53 16 44 7 -6 13 -21
14 -33 0 -11 3 -16 5 -9 3 7 12 9 20 6 15 -6 17 1 14 85 -2 54 11 68 35 35 16
-21 35 -9 27 19 -4 16 -2 19 9 13 12 -7 12 -6 1 8 -9 10 -12 36 -11 69 l3 53
-147 3 c-81 1 -147 -1 -147 -5z"/>
</g>
</svg>
